<?xml version="1.0" encoding="utf-8"?>
<!-- Generator: Adobe Illustrator 25.0.0, SVG Export Plug-In . SVG Version: 6.00 Build 0)  -->
<svg version="1.1" id="Ebene_1" xmlns="http://www.w3.org/2000/svg" xmlns:xlink="http://www.w3.org/1999/xlink" x="0px" y="0px"
	 viewBox="0 0 600 600" style="enable-background:new 0 0 600 600;" xml:space="preserve">
<style type="text/css">
	.st0{display:none;}
	.st1{display:inline;fill:#ECF0F1;}
	.st2{display:inline;fill:#A68469;}
	.st3{fill:#F0C7B1;}
	.st4{fill:#FFE4D6;}
	.st5{fill:#E1AC8F;}
	.st6{fill:none;stroke:#C27B55;stroke-width:3.825;stroke-miterlimit:10.2;}
	.st7{fill:url(#SvgjsPath3953_1_);}
	.st8{fill:#1D282E;}
	.st9{fill:#2D373D;}
	.st10{fill:#070C0F;}
	.st11{fill:#101A1F;}
	.st12{fill:#F0C7B1;stroke:#C27B55;stroke-width:3.825;stroke-miterlimit:10.2;}
	.st13{fill:#C27B55;}
	.st14{fill:#E8B9A0;}
	.st15{fill:url(#SvgjsPath3299_1_);}
	.st16{fill:url(#SvgjsPath3331_1_);}
	.st17{fill:#4E60A3;}
	.st18{opacity:0.7;fill:url(#SvgjsPath3432_1_);enable-background:new    ;}
	.st19{opacity:0.4;fill:url(#SvgjsPath3436_1_);enable-background:new    ;}
	.st20{opacity:0.9;enable-background:new    ;}
	.st21{opacity:0.5;fill:url(#SvgjsPath3442_1_);enable-background:new    ;}
	.st22{opacity:0.5;fill:url(#SvgjsPath3446_1_);enable-background:new    ;}
	.st23{opacity:0.75;fill:url(#SvgjsPath3450_1_);enable-background:new    ;}
	.st24{fill:url(#SvgjsPath3354_1_);}
	.st25{fill:url(#SvgjsPath3359_1_);}
	.st26{fill:url(#SvgjsPath3338_1_);}
	.st27{opacity:0.7;fill:url(#SvgjsPath3455_1_);enable-background:new    ;}
	.st28{opacity:0.4;fill:url(#SvgjsPath3459_1_);enable-background:new    ;}
	.st29{opacity:0.5;fill:url(#SvgjsPath3465_1_);enable-background:new    ;}
	.st30{opacity:0.5;fill:url(#SvgjsPath3469_1_);enable-background:new    ;}
	.st31{opacity:0.75;fill:url(#SvgjsPath3473_1_);enable-background:new    ;}
	.st32{fill:url(#SvgjsPath3374_1_);}
	.st33{fill:url(#SvgjsPath3379_1_);}
	.st34{fill:url(#SvgjsPath2906_1_);}
	.st35{fill:url(#SvgjsPath2910_1_);}
	.st36{fill:#2A232B;}
	.st37{opacity:0.2;fill:#FFF5EF;enable-background:new    ;}
	.st38{fill:#A46C47;}
	.st39{fill:#A68469;}
	.st40{fill:#976F50;}
	.st41{fill:#B59A85;}
	.st42{fill:#784B28;}
	.st43{fill:#26120B;}
	.st44{display:none;opacity:0.5;fill:#ECF0F1;enable-background:new    ;}
</style>
<g id="svga-group-wrapper">
	<g id="svga-group-backs-single" class="st0">
		<path id="SvgjsPath3784" class="st1" d="M675,675H-75V-75h750V675z"/>
	</g>
	<g id="svga-group-humanwrap-move" transform="matrix(1,0,0,1,0,0)">
		
			<g id="svga-group-humanwrap" transform="matrix(0.8499995000000001,0,0,0.8499995000000001,14.957440929289803,16.509060385852806)">
			<g id="svga-group-hair-back-move" transform="matrix(1,0,0,1,0,0)" class="st0">
				<g id="svga-group-hair-back" transform="matrix(1,0,0,1,0,0)">
					<path id="SvgjsPath3685" class="st2" d="M336.7,340.3h-3v-3h3V340.3z"/>
				</g>
			</g>
			<g id="svga-group-humanbody-single">
				<path id="SvgjsPath2914" class="st3" d="M621.4,638.2c-6.6-14.2-24.6-35.3-44.6-41.2c-24.7-7.2-80.5-15.9-101.2-20.8
					c-16.6-3.9-50-33.9-61.7-44c-2.1-1.8-3.8-5.5-3.9-8.3c-0.4-32.6,12.6-119.2,12.6-119.2h-87.5h-87.5c0,0,13,86.6,12.6,119.2
					c0,2.8-1.8,6.5-3.9,8.3c-11.7,10.1-45.1,40.1-61.7,44c-20.7,4.8-76.5,13.9-101.2,21.1c-20,5.8-38,26.6-44.6,40.9
					c-11.1,24-13.8,67.5-13.8,105h300h300C635.2,705.7,632.6,662.2,621.4,638.2z"/>
				<path id="SvgjsPath2915" class="st4" d="M512.7,591c73,10.6,103.8,26.1,113.4,152.2h9.1c0-37.5-2.6-81-13.7-105
					c-6.6-14.2-24.6-35.3-44.6-41.2c-24.7-7.2-80.5-15.9-101.2-20.8c-16.6-3.9-54.7-36.2-64.9-49.1c10.1,14.1,38.4,46.8,63.2,55.4
					C485.8,586.7,495.6,588.5,512.7,591z M196.5,582.6c24.8-8.6,53.1-41.3,63.2-55.4c-10.2,12.8-48.3,45.2-64.9,49.1
					c-20.7,4.8-76.5,13.9-101.2,21.1c-20,5.8-38,26.6-44.6,40.9c-11.1,24-13.7,67.5-13.7,105h9.2C53.9,617.9,84.8,601.6,157.7,591
					C174.8,588.5,184.6,586.7,196.5,582.6z"/>
				<path id="SvgjsPath2916" class="st5" d="M322.1,631.7c0,0-15.2-4.8-21.2-7.1c-31.3-12-133.2-19.8-133.2-19.8
					s107.3,4.3,130.9,8.3c-1.4-14.3-9.1-60-9.1-60s15.4,50.4,19.2,63.2C310.8,623,322.1,631.7,322.1,631.7z M354.5,627.7
					c-0.3,0.2-0.6,0.5-0.9,0.8C354,628.2,354.3,628,354.5,627.7z M322.1,631.7c0,0,8.7,9,13,9.1c5.7,0.2,14.5-8.7,18.5-12.3
					c-3.8,2.9-12.5,4.2-15.9,4.3C333.7,632.9,322.1,631.7,322.1,631.7z M385.2,609.1c-4.6,0.7-13.2,2.4-13.2,2.4l6.9-44.7
					c-1.9,9.2-13.4,48.6-24.4,60.8c5.7-4.8,18.5-7.2,25-8.1c30.7-4.5,30.7-4.4,123.2-14.8C502.7,604.7,415.5,604.3,385.2,609.1z"/>
				<path id="SvgjsPath2917" class="st6" d="M621.4,638.2c-6.6-14.2-24.6-35.3-44.6-41.2c-24.7-7.2-80.5-15.9-101.2-20.8
					c-16.6-3.9-50-33.9-61.7-44c-2.1-1.8-3.8-5.5-3.9-8.3c-0.4-32.6,12.6-119.2,12.6-119.2h-87.5h-87.5c0,0,13,86.6,12.6,119.2
					c0,2.8-1.8,6.5-3.9,8.3c-11.7,10.1-45.1,40.1-61.7,44c-20.7,4.8-76.5,13.9-101.2,21.1c-20,5.8-38,26.6-44.6,40.9
					c-11.1,24-13.8,67.5-13.8,105h300h300C635.2,705.7,632.6,662.2,621.4,638.2z"/>
			</g>
			<g id="svga-group-chinshadow-single">
				
					<linearGradient id="SvgjsPath3953_1_" gradientUnits="userSpaceOnUse" x1="-371.2203" y1="658.5483" x2="-371.2203" y2="698.5483" gradientTransform="matrix(2.55 0 0 -2.55 1281.7725 2231.1423)">
					<stop  offset="0" style="stop-color:#E1AC8F;stop-opacity:0.8"/>
					<stop  offset="0.7" style="stop-color:#C27B55"/>
				</linearGradient>
				<path id="SvgjsPath3953" class="st7" d="M335.3,554.4c24.5,0,50.6-14.8,72.6-32c0-20.1,4.4-57.3,8-84.6
					c-46.1-6.7-115.2-6.8-161.3-0.5c3.6,26.9,7.9,63.6,8,84.1C284.6,539.1,310.7,554.4,335.3,554.4z"/>
			</g>
			<g id="svga-group-clothes-single">
				<path id="SvgjsPath3778" class="st8" d="M649.5,742.9c-75.2-0.7-192.7,0-288.2,0.3l11.3-102.7c1.2-26.6,12.9-33.6,19.2-49.6
					c25.6-65,15.4-45.7,24-99.4c29.1,4,51.7,63.1,73,70.8c0,1.3-1,7.2-2.3,14.7C596.6,599.8,635.2,575.1,649.5,742.9z M315.6,641
					c-3.2-9.4-16.4-23.2-22.7-32.3c-10.7-15.6-19.6-32.1-32.6-70.8c0-0.4-2.1-34.2-5.5-48.6c-17.3,8.1-14.2,21.4-40.8,52.6
					c-5.6,6.5-16.6,8.5-27.8,15c-0.6,6.3-0.7,11.8-0.4,16.9c-27.9,4.2-106.1,21.1-134.6,43c-13.2,30.5-43.5,87-38.7,128.8
					c84.7-0.9,213.6-1.8,322.1-2.4c0,0,3.9-59.7-20.6-102.9C314.6,640.5,315.1,640.7,315.6,641z"/>
				<path id="SvgjsPath3779" class="st9" d="M187.5,577.1c-59.7,17.1-98.6,29.5-126.1,45.3c-12.5,23.4-33.2,56.5-44.5,120.8
					c-0.2,0-2.9-0.3-3.1-0.3c0.3-51.2,23.4-92.4,37.3-125.5c30.6-24.8,96.9-37,135-43.1C186.2,574.5,187.4,576.9,187.5,577.1z
					 M486.7,577.5c38.1,6.1,94.5,12.5,126.4,32.8c22.1,33.4,34.3,80.5,34.6,131.7c-0.2,0-2.9,0.3-3.1,0.3
					c-11.3-64.3-25-99.6-37.5-123c-27.5-15.8-62-21.8-121.8-38.9C485.4,580.2,486.6,577.8,486.7,577.5z"/>
				<path id="SvgjsPath3780" class="st10" d="M394.1,642.3c-5.2-2.9-15-3.5-21,1.8c1.8-5.3,8.4-9.6,17-10.6
					c27,5.3,59.7,41.6,92.1,55.2C450.1,683.2,418.6,656.3,394.1,642.3z M316.2,645.3l-3.6-6.5c-6.2,0.1-20.9,1.4-27,6.9
					c-27.9,24.7-72.4,37.1-92.2,50C295.3,668.6,275.8,647.1,316.2,645.3z"/>
				<path id="SvgjsPath3781" class="st11" d="M382.1,635.8c-4.5,1.3-9.2,4.7-9.4,4.7c1.2-26.6,12.9-33.6,19.2-49.6
					c25.6-65,15.4-45.7,24-99.4c5.8,0.8,11.4,4.2,16.7,9.3c-3.7,28.5-11.5,51-22.9,76.7c13.4-7.6,27.9-16.8,41-24.1
					C423.4,577.9,390.7,600.1,382.1,635.8z M315.6,641c-3.2-9.4-16.4-23.2-22.7-32.3c-10.7-15.6-19.6-32.1-32.6-70.8
					c0-0.4-2.1-34.2-5.5-48.6c-10.9,5.1-10,8.9-17.3,21.3c5.9,30.4,17.7,49.7,34.6,75c-14.4-9.5-34.4-25.6-54.2-35.5
					c33.4,25,63.4,56.2,86,89.4C311.1,637.2,311.4,638.9,315.6,641z"/>
				<path id="SvgjsPath3782" d="M615.4,607.3c-25.7-15.2-70-25.4-127.6-32.3c0.8-7.4,1.4-12.8,1.4-12.9c-21.3-7.4-45-67.4-74.6-71
					c-21.9,134.7-35.2,88.7-46.1,147.7c-2,10.7-8.6,97.6-8.9,101.8c-7.7,0-15.4,0-23.2,0c1.6-53.9-19-96.3-20.2-99
					c-2.6-9.4-16.6-24-22.9-33.1c-16.3-23.7-23.7-45.3-32.6-70.6c0,0-1.4-34.9-5-49.1c-17.8,8.2-15.2,18.2-41.9,49.5
					c-7.6,8.8-17.8,12.5-27.9,18.5c-0.5,5.7-0.6,11.1-0.4,16.4c-102.8,13-125.2,35.9-137.7,41.3c-8.8,28.6-37,70-37.3,131.5
					c88.9,0,102.2,1.2,370.4,0.2c41.6-0.2,83.2-0.4,124.8-0.7c61.4-0.4,146,1.4,146,1.4C651.8,683.1,637.8,644.6,615.4,607.3z
					 M388.1,599.6c21-41.1,21-50.8,29-106.9c25.4,8.5,48.6,62.9,69.4,69.6c-14.8,76.5-6.8,106.1-5.7,124.1
					c-7.7-4.2-13.7-8-21.2-12.4c-23.2-13.9-39.2-30.7-63.8-40.7c-6.7-2.8-16.2,1.4-22.1,5.7C377,610.6,380.2,615,388.1,599.6z
					 M393.1,635c0,0,0-0.1,0-0.1C393.9,634.8,393.4,634.9,393.1,635z M373.5,647.2c1.2-5.9,10.1-9.3,14.6-10.9
					c-5.8,25.7-13.3,60.2-13.5,104.3c-3.7,0-7.5,0-11.2,0C363.6,736.7,368.7,671.4,373.5,647.2z M332,740.6c-2.4,0-4.7,0-7.1,0
					c3.3-38.4-16.8-71.4-26.1-99.1c2.4-0.2,9.6-2.2,11.6-1.9C315.4,643.4,338.2,704.5,332,740.6z M215.3,541.2
					c28.6-32.9,22.7-41,38.5-50.7c1,9.4,1.8,19,2.3,28.5c1.7,33.8-2.8,10.7,10.5,45.5c19.5,51.2,37,55.6,46,73.1
					c-31.7-2.2-36.4,21.6-64.9,31.1c-26.3,10.3-19.1,5.5-55.1,26.2c10.1-71.5-5.2-104.5-5.2-136.7
					C197.7,552.9,207.6,549.9,215.3,541.2z M14.8,742.6c5-62,29.1-102.1,39-124c13.9-9,60.1-32.8,131.8-43.2
					c1,19.8,5.8,37.1,6.2,56.8c0.7,18.8,0.6,42.2-0.8,65.2c13.4-6.1,26.2-13.4,41-18.8c41.4-15,34.3-18.3,54.1-32
					c4.7-3.3,4-3.4,8.2-4.4c7.7,24,32,56.7,26.4,98.5C215,740.9,109.7,741.5,14.8,742.6z M379,740.6c-1-37.4,7.9-69,14-105.4
					c14.6,0.2,55,40.3,90.4,55.3c0.8-12.6-0.5-38.9-0.5-68.2c0-0.9,2.7-27,4.6-44.5c33.8,9.7,88.7,9.8,125.5,35.9
					c14.8,28.3,32.6,60.1,33.8,127.8C562.9,740.9,471.5,740.5,379,740.6z"/>
			</g>
			<g id="svga-group-head" transform="matrix(1,0,0,1,0,0)">
				<g id="svga-group-ears-left-move" transform="matrix(1,0,0,1,0,0)">
					<g id="svga-group-ears-left" transform="matrix(1,0,0,1,0,0)">
						<path id="SvgjsPath3785" class="st12" d="M176.2,288.5c-4.1-7.4-16.9-25.4-29.9-21c-8.2,2.8-9.9,12-11.2,20.1
							c-1.8,10.8,1.4,32.1,4.2,39.8c2.6,7.4,10.6,21.7,15.8,27.1c6.4,6.7,14.3,28,15.6,30.2c2,3.5,4.6,8.7,12.4,8.1
							c8.6-0.7,13.8-5.5,17.6-6.4C210,384.4,186.9,307.7,176.2,288.5z"/>
						<path id="SvgjsPath3786" class="st13" d="M167.8,333.2c-0.4-1.7,0-4.7,0.4-7.5c0.4-2.6,0.7-5,0.5-6.8
							c-0.8-6.5-5.3-18.7-8.3-25.4c-3.4-7.7-8.9-17.3-15.8-19.8c-2.9-1-4.7,0.2-5.8,1.5c-0.8,0.9-1,2-0.7,2.1
							c0.3,0.1,0.9-0.8,1.7-1.6c0.7-0.7,1.7-1.3,3.2-1.2c-0.6,3.2-3.5,20.6-2.2,32.5c1,9.3,4.8,16.3,5.4,17.4
							c0.1,1.1,0.2,2.2,0.4,3.2c2.8,13.6,14.9,29.2,19.1,34.2c0.8,0.9,1.6,1.5,1.8,1.3c0.2-0.2-0.3-1.2-1.1-2.1
							c-4.2-5-16.2-20.5-18.9-33.7c-2.9-14,7-34.7,9.1-39.1c1.1,2.1,2.1,4,2.8,5.7c0.6,1.3,1.2,2.8,1.9,4.4c-1.3,2.3-10.3,19-7,32.3
							c1.2,4.9,6.7,11.3,10.3,13c2,1,2.8,2.4,3.6,4c1,1.9,2.2,4.1,5.5,5.7c0.7,0.3,1.3,0.5,1.8,0.5c0.9,0,1.7-0.4,2.2-0.9
							c0.1,0.8,0.1,1.9,0,2.9c0,1.3,0.1,2.3,0.4,2.4c0.3,0,0.6-1,0.6-2.3c0-1.6,0-3.5-0.2-4.5c-0.7-2.8-3-5.9-5.4-9.1
							C170.9,339.2,168.4,335.9,167.8,333.2z M146,321.1c-6.5-21.4,2-39.9,3.4-42.8c2.6,2.5,4.8,5.8,6.6,9
							C154.8,289.8,146.3,306.7,146,321.1z M174.2,352.4c-3-1.4-4-3.3-5-5.2c-0.9-1.7-1.8-3.4-4.1-4.5c-0.5-0.2-1.1-0.6-1.6-1
							c-7.5-18.8,0.8-27,2.9-28.7c0.6,2.3,1.1,4.4,1.3,6.1c0.2,1.6-0.2,4-0.5,6.4c-0.4,3-0.9,6-0.4,8c0.7,2.9,3.2,6.4,5.7,9.7
							c2.2,3,4.4,6,5.2,8.5C177.3,352.2,176.2,353.4,174.2,352.4z"/>
					</g>
				</g>
				<g id="svga-group-ears-right-move" transform="matrix(1,0,0,1,0,0)">
					<g id="svga-group-ears-right" transform="matrix(1,0,0,1,0,0)">
						<path id="SvgjsPath3787" class="st12" d="M493.4,288.5c4.1-7.4,16.9-25.4,29.9-21c8.2,2.8,9.9,12,11.2,20.1
							c1.8,10.8-1.4,32.1-4.2,39.8c-2.6,7.4-10.6,21.7-15.8,27.1c-6.4,6.7-14.3,28-15.6,30.2c-2,3.5-4.6,8.7-12.4,8.1
							c-8.6-0.7-13.8-5.5-17.6-6.4C459.6,384.4,482.7,307.7,493.4,288.5z"/>
						<path id="SvgjsPath3788" class="st13" d="M496.4,342.4c-2.4,3.3-4.7,6.4-5.4,9.1c-0.3,0.9-0.3,2.9-0.2,4.5
							c0,1.3,0.3,2.3,0.6,2.3s0.4-1.1,0.4-2.4c0-1,0-2.1,0-2.9c0.5,0.5,1.2,0.9,2.2,0.9c0.5,0,1.2-0.1,1.8-0.5
							c3.3-1.6,4.5-3.8,5.5-5.7c0.9-1.7,1.6-3.1,3.6-4c3.6-1.7,9.1-8.1,10.3-13c3.3-13.3-5.7-30-7-32.3c0.7-1.6,1.3-3.1,1.9-4.4
							c0.7-1.6,1.7-3.6,2.8-5.7c2.2,4.4,12,25.1,9.1,39.1c-2.7,13.2-14.7,28.6-18.9,33.7c-0.8,0.9-1.3,1.9-1.1,2.1
							c0.2,0.2,1-0.3,1.8-1.3c4.2-5.1,16.3-20.6,19.1-34.2c0.2-1,0.4-2.1,0.4-3.2c0.6-1,4.4-8,5.4-17.4c1.3-11.9-1.7-29.3-2.2-32.5
							c1.4-0.1,2.4,0.5,3.2,1.2c0.9,0.8,1.5,1.7,1.7,1.6s0.1-1.2-0.7-2.1c-1.1-1.3-3-2.5-5.8-1.5c-6.9,2.5-12.4,12.1-15.8,19.8
							c-3,6.7-7.5,18.9-8.3,25.4c-0.2,1.7,0.1,4.2,0.5,6.8c0.4,2.8,0.8,5.8,0.4,7.5C501.2,335.9,498.7,339.2,496.4,342.4z
							 M513.5,287.2c1.8-3.2,4.1-6.5,6.6-9c1.5,2.9,10,21.4,3.4,42.8C523.3,306.7,514.8,289.8,513.5,287.2z M492,351.7
							c0.8-2.5,3-5.5,5.2-8.5c2.4-3.3,5-6.8,5.7-9.7c0.4-2,0-5-0.4-8c-0.3-2.4-0.7-4.9-0.5-6.4c0.2-1.7,0.7-3.8,1.3-6.1
							c2.1,1.7,10.3,9.9,2.9,28.7c-0.6,0.4-1.1,0.8-1.6,1c-2.3,1.1-3.2,2.8-4.1,4.5c-1,1.9-2,3.8-5,5.2
							C493.4,353.4,492.3,352.2,492,351.7z"/>
					</g>
				</g>
				<g id="svga-group-faceshape-wrap" transform="matrix(1,0,0,1,0,0)">
					<g id="svga-group-faceshape-single">
						<path id="SvgjsPath3950" class="st3" d="M511.5,272.9L511.5,272.9c0,0.1-36.6,120.8-47.7,157.3c-2.1,7.1-5.8,13.7-10.7,19.2
							c-19.1,21.6-71.3,75.2-118,75.2c-47.5,0-100.8-57.1-119.1-78.6c-4.3-5.1-7.5-10.9-9.5-17.3c-10.8-34.7-48.4-154.9-48.4-155.1
							h0c-3.9-15-6-30.7-6-46.9C152,124.5,233.7,41.6,334.5,41.4c100.9-0.2,182.7,82.4,182.9,184.5
							C517.4,242.2,515.4,257.9,511.5,272.9z"/>
						<path id="SvgjsPath3951" class="st14" d="M431.7,69.6c42.9,33.4,71,88.4,71.1,150.6c0,16.2-1.8,31.9-5.4,46.9h0
							c0,0.1-33.7,120.8-43.8,157.3c-2,7.1-5.3,13.7-9.8,19.2c-17.6,21.6-65.6,75.2-108.5,75.2c-43.7,0-92.7-57.1-109.6-78.6
							c-4-5.1-6.9-10.9-8.8-17.3c-10-34.7-44.5-154.9-44.5-155.1h0c-3.6-15-5.5-30.7-5.5-46.9c-0.1-62.5,28-117.7,71.1-151.2
							c-51.6,32.7-85.9,90.8-85.8,156.9c0,16.2,2.1,31.9,6,46.9h0c0,0.1,37.6,120.4,48.4,155.1c2,6.4,5.2,12.2,9.5,17.3
							c18.3,21.5,71.6,78.6,119.1,78.6c46.7,0,98.8-53.6,118-75.2c4.9-5.5,8.5-12.1,10.7-19.2c11-36.4,47.6-157.1,47.6-157.3h0
							c3.8-15,5.9-30.7,5.9-46.9C517.3,160,483.1,102.2,431.7,69.6z"/>
						<path id="SvgjsPath3952" class="st6" d="M511.5,272.9L511.5,272.9c0,0.1-36.6,120.8-47.7,157.3c-2.1,7.1-5.8,13.7-10.7,19.2
							c-19.1,21.6-71.3,75.2-118,75.2c-47.5,0-100.8-57.1-119.1-78.6c-4.3-5.1-7.5-10.9-9.5-17.3c-10.8-34.7-48.4-154.9-48.4-155.1
							h0c-3.9-15-6-30.7-6-46.9C152,124.5,233.7,41.6,334.5,41.4c100.9-0.2,182.7,82.4,182.9,184.5
							C517.4,242.2,515.4,257.9,511.5,272.9z"/>
					</g>
				</g>
				<g id="svga-group-mouth-single-move" transform="matrix(1,0,0,1,0,0)">
					<g id="svga-group-mouth-single" transform="matrix(1,0,0,1,0,0)">
						
							<linearGradient id="SvgjsPath3299_1_" gradientUnits="userSpaceOnUse" x1="-370.7656" y1="692.666" x2="-370.7656" y2="695.666" gradientTransform="matrix(2.55 0 0 -2.55 1281.7725 2231.1423)">
							<stop  offset="0.1" style="stop-color:#E8B9A0"/>
							<stop  offset="1" style="stop-color:#E1AC8F"/>
						</linearGradient>
						<path id="SvgjsPath3299" class="st15" d="M323.9,456.6l24.9-0.6C345.9,469.3,325.8,467.4,323.9,456.6z"/>
						<path id="SvgjsPath3303" class="st13" d="M324.2,457.4c-1.1-0.2-0.9-1.7,0.2-1.6c0.1,0,12.9,1.6,23.6-0.6
							c1.2-0.2,1.5,1.4,0.4,1.6C340.1,458.5,329.2,458.1,324.2,457.4z M335.4,446.7c-4.5,0-8.9-1.6-13.3-2.3
							c-4.9-0.9-9.8-0.1-14.7,0.3c-5,0.4-16,0-19.1-2c-1.7-1.1-1.4-3.7,0.5-4.3c1.8-0.7,4.7,0.7,6.6,1c8.6,1.5,13.2-0.1,20.7-0.4
							c11.6-0.3,12.8,4.5,27.2,1.6c15.5-3.1,22.5-0.8,33.6-4.1c1.5-0.5,3.3-1.7,4.9-0.9c1.8,1,1.8,3.6-0.1,4.4
							c-10.2,4.5-21.5,2.7-32.9,4.6C344.4,445.4,340,446.7,335.4,446.7z"/>
					</g>
				</g>
				<g id="svga-group-eyes-left-move" transform="matrix(1,0,0,1,0,0)">
					<g id="svga-group-eyes-left" transform="matrix(1,0,0,1,0,0)">
						<g id="svga-group-eyesback-left">
							
								<radialGradient id="SvgjsPath3331_1_" cx="-931.9871" cy="729.876" r="15.117" gradientTransform="matrix(-2.536 0.2657 -0.2657 -2.536 -1914.6335 2390.8274)" gradientUnits="userSpaceOnUse">
								<stop  offset="0" style="stop-color:#FFFFFF"/>
								<stop  offset="0.315" style="stop-color:#FCFDFD"/>
								<stop  offset="0.504" style="stop-color:#F4F7F8"/>
								<stop  offset="0.66" style="stop-color:#E5ECEF"/>
								<stop  offset="0.76" style="stop-color:#D8E2E7"/>
							</radialGradient>
							<path id="SvgjsPath3331" class="st16" d="M220.5,286.4c-1.5-6.9,15.6-11.9,38.1-9.2c22.6,2.8,38.2,16.6,36.2,23.5
								c-1.1,3.9-31.9,9.7-42.8,8.5C241,308.1,224.1,303,220.5,286.4z"/>
						</g>
						<g id="svga-group-eyesiriswrapper-left" transform="matrix(1,0,0,1,0.25,0.25)">
							<g id="svga-group-eyesiriscontrol-left" transform="matrix(1,0,0,1,0,0)">
								<g id="svga-group-eyesiris-left" transform="matrix(1,0,0,1,0,0)">
									<path id="SvgjsPath3431" class="st17" d="M275.7,291.3c0,9.9-8.1,18-18,18s-18-8.1-18-18l0,0c0-9.9,8.1-18,18-18
										C267.6,273.3,275.7,281.4,275.7,291.3L275.7,291.3z"/>
									
										<radialGradient id="SvgjsPath3432_1_" cx="1234.4758" cy="-260.576" r="59.751" gradientTransform="matrix(0.2448 -6.323996e-02 -6.247496e-02 -0.2451 -61.011 305.6176)" gradientUnits="userSpaceOnUse">
										<stop  offset="0" style="stop-color:#FFFFFF"/>
										<stop  offset="1" style="stop-color:#FFFFFF;stop-opacity:0"/>
									</radialGradient>
									<path id="SvgjsPath3432" class="st18" d="M255.7,273.5c-0.1,0-0.1,0-0.2,0c0.1,0.4,0.2,0.8,0.3,1.2
										C255.7,274.4,255.7,274,255.7,273.5z M255.7,274.8c0.2,5.9,0.6,11.2,1.6,13.1C257.8,285.8,256.9,280.6,255.7,274.8z
										 M257.3,287.9c-0.1,0.5-0.3,0.8-0.6,1s-0.7,0-1.1-0.3c0.1,0.5,0.1,0.9-0.1,1.1c-0.2,0.2-0.6,0.3-1.1,0.2
										c0.3,0.4,0.5,0.7,0.4,1.1c-0.1,0.3-0.4,0.5-0.9,0.7c0.5,0.2,0.8,0.4,0.9,0.7c0.1,0.3-0.1,0.7-0.4,1.1
										c0.5-0.1,0.9,0,1.1,0.2c0.2,0.2,0.2,0.6,0.1,1.1c0.4-0.3,0.8-0.4,1.1-0.3c0.3,0.1,0.5,0.5,0.6,1c0.2-0.5,0.5-0.7,0.8-0.8
										c0.3,0,0.6,0.2,1,0.6c0-0.5,0.1-0.9,0.4-1.1c0.3-0.2,0.7-0.1,1.1,0c-0.2-0.5-0.3-0.8-0.2-1.1c0.1-0.3,0.5-0.4,1-0.5
										c-0.4-0.3-0.7-0.6-0.7-0.9c0-0.3,0.3-0.6,0.7-0.9c-0.5-0.1-0.9-0.2-1-0.5c-0.1-0.3-0.1-0.7,0.2-1.1c-0.5,0.2-0.9,0.2-1.1,0
										c-0.3-0.2-0.4-0.6-0.4-1.1c-0.3,0.4-0.7,0.6-1,0.6C257.8,288.6,257.5,288.3,257.3,287.9z M259.1,288.1
										c1.4-1.6,3.1-6.6,4.7-12.3C261.2,281.1,259.1,286,259.1,288.1z M263.8,275.8c0.2-0.4,0.4-0.7,0.5-1.1
										c-0.1,0-0.1-0.1-0.2-0.1C264,275,263.9,275.4,263.8,275.8z M260.6,289.2c2-0.8,5.8-4.4,9.9-8.7
										C265.8,284,261.6,287.2,260.6,289.2z M270.5,280.4c0.3-0.2,0.6-0.5,0.9-0.7c0-0.1-0.1-0.1-0.1-0.1
										C271,279.9,270.8,280.2,270.5,280.4z M261.5,290.8c2.1,0.3,7.2-1.3,12.8-3.1C268.4,288.6,263.2,289.6,261.5,290.8z
										 M274.3,287.7c0.3,0,0.7-0.1,1-0.2c0-0.1,0-0.1,0-0.2C274.9,287.4,274.6,287.6,274.3,287.7z M261.5,292.6
										c1.8,1.2,7,2.2,12.8,3.2C268.6,293.9,263.6,292.4,261.5,292.6z M274.2,295.8c0.3,0.1,0.6,0.2,0.9,0.3c0-0.1,0-0.1,0-0.2
										C274.8,295.9,274.5,295.9,274.2,295.8z M260.6,294.3c1,1.9,5.1,5.2,9.8,8.8C266.4,298.7,262.6,295,260.6,294.3z M270.4,303
										c0.2,0.2,0.4,0.4,0.5,0.6c0,0,0.1-0.1,0.1-0.1C270.9,303.3,270.6,303.2,270.4,303z M259.1,295.3c0,2.2,2.1,7,4.6,12.3
										C262.1,301.9,260.5,296.9,259.1,295.3z M263.7,307.6c0.1,0.2,0.1,0.5,0.2,0.7c0,0,0.1,0,0.1,0
										C263.9,308.1,263.8,307.8,263.7,307.6z M257.2,295.5c-1,1.9-1.4,7.2-1.6,13.1C256.8,302.8,257.8,297.6,257.2,295.5z
										 M255.6,308.6c-0.1,0.2-0.1,0.5-0.1,0.7c0,0,0.1,0,0.1,0C255.6,309.1,255.6,308.8,255.6,308.6z M255.5,294.9
										c-1.8,1.2-4.6,5.7-7.5,10.8C251.8,301.1,255,296.9,255.5,294.9z M248,305.7c-0.2,0.2-0.3,0.4-0.5,0.6c0,0,0.1,0,0.1,0.1
										C247.8,306.1,247.9,305.9,248,305.7z M254.3,293.5c-2.1,0.2-6.7,2.9-11.7,6.1C248.1,297.3,252.9,295.1,254.3,293.5z
										 M242.6,299.6c-0.3,0.1-0.5,0.2-0.8,0.3c0,0,0,0.1,0.1,0.1C242.1,299.9,242.4,299.7,242.6,299.6z M253.9,291.7
										c-2-0.8-7.3-0.5-13.2,0C246.6,292.2,251.9,292.4,253.9,291.7z M240.7,291.7c-0.3,0-0.7-0.1-1-0.1c0,0.1,0,0.1,0,0.2
										C240.1,291.7,240.4,291.7,240.7,291.7z M254.3,289.9c-1.4-1.6-6.2-3.8-11.6-6.2C247.7,286.9,252.2,289.6,254.3,289.9z
										 M242.7,283.7c-0.3-0.2-0.6-0.4-0.9-0.6c0,0.1-0.1,0.1-0.1,0.2C242,283.5,242.3,283.6,242.7,283.7z M255.5,288.5
										c-0.5-2.1-3.7-6.3-7.5-10.9C251,282.8,253.8,287.3,255.5,288.5z M248.1,277.7c-0.2-0.3-0.4-0.7-0.6-1
										c-0.1,0-0.1,0.1-0.2,0.1C247.6,277,247.8,277.4,248.1,277.7z"/>
									
										<radialGradient id="SvgjsPath3436_1_" cx="1601.1967" cy="495.2827" r="59.7533" gradientTransform="matrix(0.2527 2.258360e-03 2.804998e-03 -0.2527 -148.5499 412.9742)" gradientUnits="userSpaceOnUse">
										<stop  offset="0" style="stop-color:#FFFFFF"/>
										<stop  offset="1" style="stop-color:#FFFFFF;stop-opacity:0"/>
									</radialGradient>
									<path id="SvgjsPath3436" class="st19" d="M260.4,273.6c-0.1,0-0.1,0-0.2,0c0,0.4,0,0.8-0.1,1.2
										C260.2,274.4,260.3,274,260.4,273.6z M260.1,274.8c-1.3,5.8-2.4,10.9-1.9,13.1C259.2,286,259.7,280.7,260.1,274.8z
										 M258.2,287.9c-0.3,0.5-0.5,0.7-0.8,0.8c-0.3,0-0.6-0.2-1-0.6c0,0.5-0.1,0.9-0.4,1.1c-0.3,0.2-0.7,0.1-1.1-0.1
										c0.2,0.5,0.3,0.9,0.1,1.1c-0.2,0.3-0.5,0.4-1,0.5c0.4,0.3,0.7,0.6,0.7,0.9c0,0.3-0.3,0.6-0.7,0.9c0.5,0.1,0.9,0.2,1,0.5
										c0.1,0.3,0.1,0.7-0.2,1.1c0.5-0.2,0.9-0.2,1.1,0c0.3,0.2,0.4,0.6,0.3,1.1c0.4-0.4,0.7-0.6,1-0.5c0.3,0,0.6,0.3,0.8,0.8
										c0.1-0.5,0.3-0.8,0.6-0.9c0.3-0.1,0.7,0,1.1,0.3c-0.1-0.5-0.1-0.9,0.1-1.1s0.6-0.3,1.1-0.2c-0.3-0.4-0.5-0.8-0.4-1.1
										c0.1-0.3,0.4-0.5,0.9-0.7c-0.5-0.2-0.8-0.4-0.9-0.8c-0.1-0.3,0.1-0.7,0.5-1c-0.5,0-0.9,0-1.1-0.3c-0.2-0.2-0.2-0.6-0.1-1.1
										c-0.4,0.3-0.8,0.4-1.1,0.3C258.5,288.7,258.3,288.4,258.2,287.9z M259.9,288.6c1.8-1.2,4.7-5.6,7.7-10.7
										C263.8,282.4,260.4,286.5,259.9,288.6z M267.6,277.9c0.3-0.3,0.5-0.6,0.8-0.9c-0.1,0-0.1-0.1-0.2-0.1
										C268,277.2,267.8,277.5,267.6,277.9z M261.1,290c2.1-0.2,6.8-2.8,11.8-5.9C267.4,286.3,262.5,288.4,261.1,290z
										 M272.9,284.1c0.4-0.1,0.7-0.3,1.1-0.4c0-0.1-0.1-0.1-0.1-0.2C273.5,283.7,273.2,283.9,272.9,284.1z M261.5,291.8
										c2,0.8,7.3,0.7,13.2,0.3C268.8,291.4,263.5,291,261.5,291.8z M274.7,292.1c0.3,0,0.7,0.1,1,0.1c0-0.1,0-0.1,0-0.2
										C275.3,292,275,292,274.7,292.1z M261,293.5c1.4,1.7,6.1,4,11.5,6.4C267.6,296.6,263.1,293.8,261,293.5z M272.5,299.9
										c0.2,0.2,0.5,0.3,0.8,0.5c0,0,0.1-0.1,0.1-0.1C273.1,300.2,272.8,300,272.5,299.9z M259.7,294.9c0.5,2.1,3.6,6.4,7.2,11
										C264.1,300.7,261.5,296.1,259.7,294.9z M267,305.9c0.1,0.2,0.2,0.5,0.4,0.7c0,0,0.1,0,0.1-0.1
										C267.3,306.3,267.1,306.1,267,305.9z M258,295.5c-0.6,2.1,0.2,7.3,1.3,13.1C259.2,302.7,259,297.4,258,295.5z M259.3,308.6
										c0,0.2,0,0.5,0,0.7c0,0,0.1,0,0.1,0C259.4,309.1,259.3,308.8,259.3,308.6z M256.2,295.2c-1.5,1.6-3.2,6.6-5,12.2
										C253.9,302.2,256.1,297.4,256.2,295.2z M251.2,307.4c-0.1,0.2-0.2,0.4-0.3,0.6c0,0,0.1,0,0.1,0
										C251.1,307.9,251.2,307.7,251.2,307.4z M254.7,294.1c-2,0.7-5.9,4.3-10.1,8.5C249.4,299.2,253.7,296,254.7,294.1z
										 M244.6,302.7c-0.2,0.1-0.4,0.3-0.6,0.4c0,0,0.1,0.1,0.1,0.1C244.3,303,244.4,302.8,244.6,302.7z M253.9,292.5
										c-2.1-0.3-7.2,1.1-12.9,2.9C246.9,294.6,252.1,293.7,253.9,292.5z M241,295.4c-0.3,0-0.6,0.1-0.8,0.1c0,0,0,0.1,0,0.1
										C240.5,295.5,240.7,295.4,241,295.4z M253.9,290.7c-1.7-1.3-6.9-2.4-12.7-3.4C246.8,289.2,251.8,290.9,253.9,290.7z
										 M241.2,287.2c-0.3-0.1-0.6-0.2-0.9-0.3c0,0.1,0,0.1,0,0.2C240.6,287.1,240.9,287.2,241.2,287.2z M254.8,289.1
										c-1-1.9-5-5.3-9.7-9C249.1,284.5,252.8,288.2,254.8,289.1z M245.1,280.1c-0.2-0.3-0.5-0.5-0.8-0.8c0,0-0.1,0.1-0.1,0.1
										C244.6,279.6,244.9,279.9,245.1,280.1z M256.3,288c0.1-2.2-2-7-4.4-12.4C253.5,281.3,254.9,286.4,256.3,288z M252,275.6
										c-0.1-0.4-0.2-0.8-0.3-1.2c-0.1,0-0.1,0-0.2,0.1C251.6,274.9,251.8,275.3,252,275.6z"/>
									<path id="SvgjsPath3440" class="st17" d="M264.8,291.3c0,3.9-3.2,7.1-7.1,7.1c-3.9,0-7.1-3.2-7.1-7.1
										c0-3.9,3.2-7.1,7.1-7.1C261.6,284.3,264.8,287.4,264.8,291.3z"/>
									<path id="SvgjsPath3441" class="st20" d="M264.8,291.3c0,3.9-3.2,7.1-7.1,7.1c-3.9,0-7.1-3.2-7.1-7.1
										c0-3.9,3.2-7.1,7.1-7.1C261.6,284.3,264.8,287.4,264.8,291.3z"/>
									
										<linearGradient id="SvgjsPath3442_1_" gradientUnits="userSpaceOnUse" x1="-344.786" y1="755.6296" x2="-343.85" y2="756.7455" gradientTransform="matrix(2.55 0 0 -2.55 1126.9099 2231.0049)">
										<stop  offset="0" style="stop-color:#FFFFFF"/>
										<stop  offset="1" style="stop-color:#FFFFFF;stop-opacity:0"/>
									</linearGradient>
									<path id="SvgjsPath3442" class="st21" d="M247.8,299.6c1.3-0.9,3.2-0.5,4.1,0.8c0.9,1.3,0.5,3.2-0.8,4.1
										c-1.4,0.9-3.2,0.5-4.1-0.8C246.1,302.3,246.5,300.5,247.8,299.6L247.8,299.6z"/>
									
										<linearGradient id="SvgjsPath3446_1_" gradientUnits="userSpaceOnUse" x1="-339.4433" y1="762.6561" x2="-340.1923" y2="761.7631" gradientTransform="matrix(2.55 0 0 -2.55 1126.9099 2231.0049)">
										<stop  offset="0" style="stop-color:#FFFFFF"/>
										<stop  offset="1" style="stop-color:#FFFFFF;stop-opacity:0"/>
									</linearGradient>
									<path id="SvgjsPath3446" class="st22" d="M263.3,290.4c-0.8,1.1-2.9,1-4.8-0.3c-1.9-1.3-2.8-3.2-2.1-4.4v0
										c0.8-1.1,2.9-1,4.8,0.3C263.1,287.3,264,289.2,263.3,290.4L263.3,290.4z"/>
									
										<linearGradient id="SvgjsPath3450_1_" gradientUnits="userSpaceOnUse" x1="-336.5917" y1="765.5668" x2="-338.3177" y2="763.5098" gradientTransform="matrix(2.55 0 0 -2.55 1126.9099 2231.0049)">
										<stop  offset="0" style="stop-color:#FFFFFF"/>
										<stop  offset="1" style="stop-color:#FFFFFF;stop-opacity:0"/>
									</linearGradient>
									<path id="SvgjsPath3450" class="st23" d="M271.8,287.4c-1.7,2.6-6.1,2.8-9.8,0.4c-3.7-2.4-5.4-6.5-3.6-9.1
										c1.7-2.6,6.1-2.8,9.8-0.4C271.9,280.7,273.5,284.8,271.8,287.4L271.8,287.4z"/>
								</g>
							</g>
						</g>
						<g id="svga-group-eyesfront-left">
							<path id="SvgjsPath3353" class="st3" d="M195.1,287.8c2.4,32.7,34.9,70.7,61.5,66.7c31.5,0.3,62.6-23.6,62.6-66.9
								s-15.3-79.6-63.4-79.6C221.3,208.1,195.1,244.5,195.1,287.8z M220.5,286.4c-1.5-6.9,15.6-11.9,38.1-9.2
								c22.6,2.8,38.2,16.6,36.2,23.5c-1.1,3.9-31.9,9.7-42.8,8.5C241,308.1,224.1,303,220.5,286.4z"/>
							
								<radialGradient id="SvgjsPath3354_1_" cx="-343.1239" cy="1002.838" r="16.003" fx="-331.8709" fy="1002.869" gradientTransform="matrix(2.5495 5.303997e-02 -4.232997e-02 2.0395 1186.4692 -1740.7428)" gradientUnits="userSpaceOnUse">
								<stop  offset="0" style="stop-color:#E1AC8F"/>
								<stop  offset="0.7" style="stop-color:#E1AC8F;stop-opacity:0.3"/>
								<stop  offset="1" style="stop-color:#F0C7B1;stop-opacity:0"/>
							</radialGradient>
							<path id="SvgjsPath3354" class="st24" d="M252,309.3c10.8,1.2,41.6-4.7,42.8-8.5c2.1-7-13.6-20.8-36.2-23.5
								c-19.4-2.4-34.7,1-37.7,6.4c2.7-19.2,23.1-34.2,48-34.3c26.7-0.1,48.4,17,48.5,38.3c0.1,21.3-21.6,38.6-48.3,38.7
								c-26.7,0.1-48.4-17-48.5-38.3c0-0.3,0-0.6,0.1-0.9C224.6,303.1,241.1,308.1,252,309.3z"/>
							
								<radialGradient id="SvgjsPath3359_1_" cx="-417.6428" cy="738.6093" r="29.524" gradientTransform="matrix(2.6357 0 0 -2.6357 1344.6686 2318.1892)" gradientUnits="userSpaceOnUse">
								<stop  offset="0.95" style="stop-color:#000000;stop-opacity:0"/>
								<stop  offset="1" style="stop-color:#000000;stop-opacity:0.2"/>
							</radialGradient>
							<path id="SvgjsPath3359" class="st25" d="M220.5,286.4c-1.5-6.9,15.6-11.9,38.1-9.2c22.6,2.8,38.2,16.6,36.2,23.5
								c-1.1,3.9-31.9,9.7-42.8,8.5C241,308.1,224.1,303,220.5,286.4z"/>
							<path id="SvgjsPath3363" class="st13" d="M221.6,271.1c12.6-5.9,28.1-6.5,41.5-3c7.2,1.7,14.9,3.9,21.2,7.9
								c5.8,3.4,10.6,7.5,15,12.6c-4-5.1-8.3-9.4-13.9-12.8c-6.8-4.2-14.3-6.9-22.1-8.7C249.6,263.6,234.2,264.4,221.6,271.1z"/>
							<path id="SvgjsPath3364" d="M223.5,272.9c2.6-1.1,12.2-3,16.4-3.2c5.1-0.2,15.2,0.4,20.2,1.3c10.1,1.8,27.8,7.4,35,21.6
								c2.2,4.3,0.2,7.4-0.4,8c0.9-7.3-14.5-20.2-36.2-22.8c-22.6-2.7-39.7,2.2-38.1,8.9c3.7,16,20.5,21,31.5,22.2
								c12.3,1.3,35.1-4.6,38.1-5.3c-6,3-22.6,6.3-29.3,6.9c-2.2,0.2-6.7,0.3-9,0.3c-17.8-0.5-30.5-9.5-35.2-21.8
								C213.6,281.1,216.9,275.6,223.5,272.9z"/>
						</g>
					</g>
				</g>
				<g id="svga-group-eyes-right-move" transform="matrix(1,0,0,1,0,0)">
					<g id="svga-group-eyes-right" transform="matrix(1,0,0,1,0,0)">
						<g id="svga-group-eyesback-right">
							
								<radialGradient id="SvgjsPath3338_1_" cx="-327.657" cy="793.1962" r="15.116" gradientTransform="matrix(2.536 0.2657 0.2657 -2.536 1034.4375 2390.8274)" gradientUnits="userSpaceOnUse">
								<stop  offset="0" style="stop-color:#FFFFFF"/>
								<stop  offset="0.316" style="stop-color:#FCFDFD"/>
								<stop  offset="0.505" style="stop-color:#F4F7F8"/>
								<stop  offset="0.661" style="stop-color:#E5ECEF"/>
								<stop  offset="0.76" style="stop-color:#D8E2E7"/>
							</radialGradient>
							<path id="SvgjsPath3338" class="st26" d="M448.7,286.4c1.5-6.9-15.6-11.9-38.1-9.2c-22.6,2.8-38.2,16.6-36.2,23.5
								c1.1,3.9,31.9,9.7,42.8,8.5C428.2,308.1,445.1,303,448.7,286.4z"/>
						</g>
						<g id="svga-group-eyesiriswrapper-right" transform="matrix(1,0,0,1,-0.25,0.25)">
							<g id="svga-group-eyesiriscontrol-right" transform="matrix(1,0,0,1,0,0)">
								<g id="svga-group-eyesiris-right" transform="matrix(1,0,0,1,0,0)">
									<path id="SvgjsPath3454" class="st17" d="M430.7,291.3c0,9.9-8.1,18-18,18c-9.9,0-18-8.1-18-18l0,0c0-9.9,8.1-18,18-18
										C422.6,273.3,430.7,281.4,430.7,291.3L430.7,291.3z"/>
									
										<radialGradient id="SvgjsPath3455_1_" cx="1234.9817" cy="-260.576" r="59.752" gradientTransform="matrix(0.2448 -6.323996e-02 -6.247496e-02 -0.2451 93.8637 305.6495)" gradientUnits="userSpaceOnUse">
										<stop  offset="0" style="stop-color:#FFFFFF"/>
										<stop  offset="1" style="stop-color:#FFFFFF;stop-opacity:0"/>
									</radialGradient>
									<path id="SvgjsPath3455" class="st27" d="M410.7,273.5c-0.1,0-0.1,0-0.2,0c0.1,0.4,0.2,0.8,0.3,1.2
										C410.7,274.4,410.7,274,410.7,273.5z M410.7,274.8c0.2,5.9,0.6,11.2,1.6,13.1C412.8,285.8,411.9,280.6,410.7,274.8z
										 M412.3,287.9c-0.1,0.5-0.3,0.8-0.6,1c-0.3,0.1-0.7,0-1.1-0.3c0.1,0.5,0.1,0.9-0.1,1.1c-0.2,0.2-0.6,0.3-1.1,0.2
										c0.3,0.4,0.5,0.7,0.4,1.1c-0.1,0.3-0.4,0.5-0.9,0.7c0.5,0.2,0.8,0.4,0.9,0.7c0.1,0.3-0.1,0.7-0.4,1.1
										c0.5-0.1,0.9,0,1.1,0.2c0.2,0.2,0.2,0.6,0.1,1.1c0.4-0.3,0.8-0.4,1.1-0.3c0.3,0.1,0.5,0.5,0.6,1c0.2-0.5,0.5-0.7,0.8-0.8
										c0.3,0,0.7,0.2,1,0.6c0-0.5,0.1-0.9,0.4-1.1c0.3-0.2,0.7-0.1,1.1,0c-0.2-0.5-0.3-0.8-0.2-1.1c0.2-0.3,0.5-0.4,1-0.5
										c-0.4-0.3-0.7-0.6-0.7-0.9c0-0.3,0.3-0.6,0.7-0.9c-0.5-0.1-0.9-0.2-1-0.5c-0.2-0.3-0.1-0.7,0.2-1.1c-0.5,0.2-0.9,0.2-1.1,0
										c-0.3-0.2-0.4-0.6-0.4-1.1c-0.3,0.4-0.7,0.6-1,0.6C412.8,288.6,412.5,288.3,412.3,287.9z M414.1,288.1
										c1.4-1.6,3.1-6.6,4.7-12.3C416.2,281.1,414.1,286,414.1,288.1z M418.8,275.8c0.2-0.4,0.4-0.7,0.5-1.1
										c-0.1,0-0.1-0.1-0.2-0.1C419,275,418.9,275.4,418.8,275.8z M415.6,289.2c2-0.8,5.8-4.4,9.9-8.7
										C420.8,284,416.6,287.2,415.6,289.2z M425.5,280.4c0.3-0.2,0.6-0.5,0.9-0.7c0-0.1-0.1-0.1-0.1-0.1
										C426,279.9,425.8,280.2,425.5,280.4z M416.5,290.8c2.1,0.3,7.2-1.3,12.8-3.1C423.4,288.6,418.2,289.6,416.5,290.8z
										 M429.3,287.7c0.3,0,0.7-0.1,1-0.2c0-0.1,0-0.1,0-0.2C429.9,287.4,429.6,287.6,429.3,287.7z M416.5,292.6
										c1.8,1.2,7,2.2,12.8,3.2C423.6,293.9,418.6,292.4,416.5,292.6z M429.2,295.8c0.3,0.1,0.6,0.2,0.9,0.3c0-0.1,0-0.1,0-0.2
										C429.8,295.9,429.5,295.9,429.2,295.8z M415.6,294.3c1,1.9,5.1,5.2,9.8,8.8C421.4,298.7,417.6,295,415.6,294.3z M425.4,303
										c0.2,0.2,0.4,0.4,0.5,0.6c0,0,0.1-0.1,0.1-0.1C425.9,303.3,425.6,303.2,425.4,303z M414.1,295.3c0,2.2,2.1,7,4.6,12.3
										C417.1,301.9,415.5,296.9,414.1,295.3z M418.7,307.6c0.1,0.2,0.1,0.5,0.2,0.7c0,0,0.1,0,0.1,0
										C418.9,308.1,418.8,307.8,418.7,307.6z M412.2,295.5c-1,1.9-1.4,7.2-1.6,13.1C411.8,302.8,412.8,297.6,412.2,295.5z
										 M410.6,308.6c-0.1,0.2-0.1,0.5-0.1,0.7c0,0,0.1,0,0.1,0C410.6,309.1,410.6,308.8,410.6,308.6z M410.5,294.9
										c-1.8,1.2-4.6,5.7-7.5,10.8C406.8,301.1,410,296.9,410.5,294.9z M403,305.7c-0.2,0.2-0.3,0.4-0.5,0.6c0,0,0.1,0,0.1,0.1
										C402.8,306.1,402.9,305.9,403,305.7z M409.3,293.5c-2.1,0.2-6.7,2.9-11.7,6.1C403.1,297.3,407.9,295.1,409.3,293.5z
										 M397.6,299.6c-0.3,0.1-0.5,0.2-0.8,0.3c0,0,0,0.1,0.1,0.1C397.1,299.9,397.4,299.7,397.6,299.6z M408.9,291.7
										c-2-0.8-7.3-0.5-13.2,0C401.6,292.2,406.9,292.4,408.9,291.7z M395.7,291.7c-0.3,0-0.7-0.1-1-0.1c0,0.1,0,0.1,0,0.2
										C395.1,291.7,395.4,291.7,395.7,291.7z M409.3,289.9c-1.4-1.6-6.2-3.8-11.6-6.2C402.7,286.9,407.2,289.6,409.3,289.9z
										 M397.7,283.7c-0.3-0.2-0.6-0.4-0.9-0.6c0,0.1-0.1,0.1-0.1,0.2C397,283.5,397.3,283.6,397.7,283.7z M410.5,288.5
										c-0.5-2.1-3.7-6.3-7.5-10.9C406,282.8,408.8,287.3,410.5,288.5z M403.1,277.7c-0.2-0.3-0.4-0.7-0.6-1
										c-0.1,0-0.1,0.1-0.2,0.1C402.6,277,402.8,277.4,403.1,277.7z"/>
									
										<radialGradient id="SvgjsPath3459_1_" cx="1601.7026" cy="495.2838" r="59.7562" gradientTransform="matrix(0.2527 2.258360e-03 2.804998e-03 -0.2527 6.3215 412.9733)" gradientUnits="userSpaceOnUse">
										<stop  offset="0" style="stop-color:#FFFFFF"/>
										<stop  offset="1" style="stop-color:#FFFFFF;stop-opacity:0"/>
									</radialGradient>
									<path id="SvgjsPath3459" class="st28" d="M415.4,273.6c-0.1,0-0.1,0-0.2,0c0,0.4,0,0.8-0.1,1.2
										C415.2,274.4,415.3,274,415.4,273.6z M415.1,274.8c-1.3,5.8-2.4,10.9-1.9,13.1C414.2,286,414.7,280.7,415.1,274.8z
										 M413.2,287.9c-0.3,0.5-0.5,0.7-0.8,0.8c-0.3,0-0.6-0.2-1-0.6c0,0.5-0.1,0.9-0.4,1.1c-0.3,0.2-0.7,0.1-1.1-0.1
										c0.2,0.5,0.3,0.9,0.1,1.1c-0.2,0.3-0.5,0.4-1,0.5c0.4,0.3,0.7,0.6,0.7,0.9c0,0.3-0.3,0.6-0.7,0.9c0.5,0.1,0.9,0.2,1,0.5
										c0.1,0.3,0.1,0.7-0.2,1.1c0.5-0.2,0.9-0.2,1.1,0c0.3,0.2,0.4,0.6,0.3,1.1c0.4-0.4,0.7-0.6,1-0.5c0.3,0,0.6,0.3,0.8,0.8
										c0.1-0.5,0.3-0.8,0.6-0.9c0.3-0.1,0.7,0,1.1,0.3c-0.1-0.5-0.1-0.9,0.1-1.1c0.2-0.2,0.6-0.3,1.1-0.2
										c-0.3-0.4-0.5-0.8-0.4-1.1c0.1-0.3,0.4-0.5,0.9-0.7c-0.5-0.2-0.8-0.4-0.9-0.8c-0.1-0.3,0.1-0.7,0.5-1c-0.5,0-0.9,0-1.1-0.3
										c-0.2-0.2-0.2-0.6-0.1-1.1c-0.4,0.3-0.8,0.4-1.1,0.3C413.5,288.7,413.3,288.4,413.2,287.9z M414.9,288.6
										c1.8-1.2,4.7-5.6,7.7-10.7C418.8,282.4,415.4,286.5,414.9,288.6z M422.6,277.9c0.3-0.3,0.5-0.6,0.8-0.9
										c-0.1,0-0.1-0.1-0.2-0.1C423,277.2,422.8,277.5,422.6,277.9z M416.1,290c2.1-0.2,6.7-2.8,11.8-5.9
										C422.4,286.3,417.5,288.4,416.1,290z M427.9,284.1c0.3-0.1,0.7-0.3,1.1-0.4c0-0.1-0.1-0.1-0.1-0.2
										C428.5,283.7,428.2,283.9,427.9,284.1z M416.5,291.8c2,0.8,7.3,0.7,13.2,0.3C423.8,291.4,418.5,291,416.5,291.8z
										 M429.7,292.1c0.3,0,0.7,0.1,1,0.1c0-0.1,0-0.1,0-0.2C430.3,292,430,292,429.7,292.1z M416,293.5c1.4,1.7,6.1,4,11.5,6.4
										C422.6,296.6,418.1,293.8,416,293.5z M427.5,299.9c0.2,0.2,0.5,0.3,0.8,0.5c0,0,0.1-0.1,0.1-0.1
										C428.1,300.2,427.8,300,427.5,299.9z M414.7,294.9c0.5,2.1,3.6,6.4,7.2,11C419.1,300.7,416.5,296.1,414.7,294.9z
										 M422,305.9c0.1,0.2,0.2,0.5,0.4,0.7c0,0,0.1,0,0.1-0.1C422.3,306.3,422.1,306.1,422,305.9z M413,295.5
										c-0.6,2.1,0.2,7.3,1.3,13.1C414.2,302.7,414,297.4,413,295.5z M414.3,308.6c0,0.2,0,0.5,0,0.7c0,0,0.1,0,0.1,0
										C414.4,309.1,414.3,308.8,414.3,308.6z M411.2,295.2c-1.5,1.6-3.2,6.6-5,12.2C408.9,302.2,411.1,297.4,411.2,295.2z
										 M406.2,307.4c-0.1,0.2-0.2,0.4-0.3,0.6c0,0,0.1,0,0.1,0C406.1,307.9,406.2,307.7,406.2,307.4z M409.7,294.1
										c-2,0.7-5.9,4.3-10.1,8.5C404.4,299.2,408.7,296,409.7,294.1z M399.6,302.7c-0.2,0.1-0.4,0.3-0.6,0.4c0,0,0.1,0.1,0.1,0.1
										C399.3,303,399.5,302.8,399.6,302.7z M408.9,292.5c-2.1-0.3-7.2,1.1-12.9,2.9C401.9,294.6,407.1,293.7,408.9,292.5z
										 M396,295.4c-0.3,0-0.6,0.1-0.8,0.1c0,0,0,0.1,0,0.1C395.5,295.5,395.7,295.4,396,295.4z M408.9,290.7
										c-1.7-1.3-6.9-2.4-12.7-3.4C401.8,289.2,406.8,290.9,408.9,290.7z M396.2,287.2c-0.3-0.1-0.6-0.2-0.9-0.3
										c0,0.1,0,0.1,0,0.2C395.6,287.1,395.9,287.2,396.2,287.2z M409.8,289.1c-1-1.9-5-5.3-9.7-9
										C404.1,284.5,407.8,288.2,409.8,289.1z M400.1,280.1c-0.2-0.3-0.5-0.5-0.8-0.8c0,0-0.1,0.1-0.1,0.1
										C399.6,279.6,399.9,279.9,400.1,280.1z M411.3,288c0.1-2.2-2-7-4.4-12.4C408.5,281.3,409.9,286.4,411.3,288z M407,275.6
										c-0.1-0.4-0.2-0.8-0.3-1.2c-0.1,0-0.1,0-0.2,0.1C406.6,274.9,406.8,275.3,407,275.6z"/>
									<path id="SvgjsPath3463" class="st17" d="M419.8,291.3c0,3.9-3.2,7.1-7.1,7.1c-3.9,0-7.1-3.2-7.1-7.1
										c0-3.9,3.2-7.1,7.1-7.1C416.6,284.3,419.8,287.4,419.8,291.3z"/>
									<path id="SvgjsPath3464" class="st20" d="M419.8,291.3c0,3.9-3.2,7.1-7.1,7.1c-3.9,0-7.1-3.2-7.1-7.1
										c0-3.9,3.2-7.1,7.1-7.1C416.6,284.3,419.8,287.4,419.8,291.3z"/>
									
										<linearGradient id="SvgjsPath3465_1_" gradientUnits="userSpaceOnUse" x1="-344.2857" y1="755.6293" x2="-343.3497" y2="756.7452" gradientTransform="matrix(2.55 0 0 -2.55 1280.635 2231.0049)">
										<stop  offset="0" style="stop-color:#FFFFFF"/>
										<stop  offset="1" style="stop-color:#FFFFFF;stop-opacity:0"/>
									</linearGradient>
									<path id="SvgjsPath3465" class="st29" d="M402.8,299.6c1.3-0.9,3.2-0.5,4.1,0.8c0.9,1.3,0.5,3.2-0.8,4.1
										c-1.3,0.9-3.2,0.5-4.1-0.8C401.1,302.3,401.5,300.5,402.8,299.6L402.8,299.6z"/>
									
										<linearGradient id="SvgjsPath3469_1_" gradientUnits="userSpaceOnUse" x1="-338.9433" y1="762.6561" x2="-339.6923" y2="761.7631" gradientTransform="matrix(2.55 0 0 -2.55 1280.635 2231.0049)">
										<stop  offset="0" style="stop-color:#FFFFFF"/>
										<stop  offset="1" style="stop-color:#FFFFFF;stop-opacity:0"/>
									</linearGradient>
									<path id="SvgjsPath3469" class="st30" d="M418.3,290.4c-0.8,1.1-2.9,1-4.8-0.3c-1.9-1.3-2.9-3.2-2.1-4.4l0,0
										c0.8-1.1,2.9-1,4.8,0.3C418.1,287.3,419,289.2,418.3,290.4L418.3,290.4z"/>
									
										<linearGradient id="SvgjsPath3473_1_" gradientUnits="userSpaceOnUse" x1="-336.0914" y1="765.5666" x2="-337.8174" y2="763.5096" gradientTransform="matrix(2.55 0 0 -2.55 1280.635 2231.0049)">
										<stop  offset="0" style="stop-color:#FFFFFF"/>
										<stop  offset="1" style="stop-color:#FFFFFF;stop-opacity:0"/>
									</linearGradient>
									<path id="SvgjsPath3473" class="st31" d="M426.8,287.4c-1.7,2.6-6.1,2.8-9.8,0.4c-3.7-2.4-5.4-6.5-3.6-9.1
										c1.7-2.6,6.1-2.8,9.8-0.4C426.9,280.7,428.5,284.8,426.8,287.4L426.8,287.4z"/>
								</g>
							</g>
						</g>
						<g id="svga-group-eyesfront-right">
							<path id="SvgjsPath3373" class="st3" d="M413.4,208.1c-48.1,0-63.4,36.3-63.4,79.6s31.1,67.2,62.6,66.9
								c26.6,4,59.1-34,61.5-66.7C474.1,244.5,447.9,208.1,413.4,208.1z M417.2,309.3c-10.8,1.2-41.6-4.7-42.8-8.5
								c-2.1-7,13.6-20.8,36.2-23.5c22.6-2.8,39.7,2.3,38.1,9.2C445.1,303,428.2,308.1,417.2,309.3z"/>
							
								<radialGradient id="SvgjsPath3374_1_" cx="-951.5273" cy="1018.6482" r="16.003" fx="-940.2753" fy="1018.6792" gradientTransform="matrix(-2.5495 5.303997e-02 4.232997e-02 2.0395 -2069.0671 -1740.7179)" gradientUnits="userSpaceOnUse">
								<stop  offset="0" style="stop-color:#E1AC8F"/>
								<stop  offset="0.7" style="stop-color:#E1AC8F;stop-opacity:0.3"/>
								<stop  offset="1" style="stop-color:#F0C7B1;stop-opacity:0"/>
							</radialGradient>
							<path id="SvgjsPath3374" class="st32" d="M417.2,309.3c-10.8,1.2-41.6-4.7-42.8-8.5c-2.1-7,13.6-20.8,36.2-23.5
								c19.4-2.4,34.7,1,37.7,6.4c-2.7-19.2-23.1-34.2-48-34.3c-26.7-0.1-48.4,17-48.5,38.3c-0.1,21.3,21.6,38.6,48.3,38.7
								c26.7,0.1,48.4-17,48.5-38.3c0-0.3,0-0.6-0.1-0.9C444.6,303.1,428,308.1,417.2,309.3z"/>
							
								<radialGradient id="SvgjsPath3379_1_" cx="-1005.4976" cy="738.6093" r="29.524" gradientTransform="matrix(-2.6357 0 0 -2.6357 -2224.8704 2318.1892)" gradientUnits="userSpaceOnUse">
								<stop  offset="0.95" style="stop-color:#000000;stop-opacity:0"/>
								<stop  offset="1" style="stop-color:#000000;stop-opacity:0.2"/>
							</radialGradient>
							<path id="SvgjsPath3379" class="st33" d="M448.7,286.4c1.5-6.9-15.6-11.9-38.1-9.2c-22.6,2.8-38.2,16.6-36.2,23.5
								c1.1,3.9,31.9,9.7,42.8,8.5C428.2,308.1,445.1,303,448.7,286.4z"/>
							<path id="SvgjsPath3383" class="st13" d="M447.6,271.1c-12.6-5.9-28.1-6.5-41.5-3c-7.2,1.7-14.9,3.9-21.2,7.9
								c-5.8,3.4-10.6,7.5-15,12.6c4-5.1,8.3-9.4,13.9-12.8c6.8-4.2,14.3-6.9,22.1-8.7C419.6,263.6,435,264.4,447.6,271.1z"/>
							<path id="SvgjsPath3384" d="M445.7,272.9c-2.6-1.1-12.2-3-16.4-3.2c-5.1-0.2-15.2,0.4-20.2,1.3c-10.1,1.8-27.8,7.4-35,21.6
								c-2.2,4.3-0.2,7.4,0.4,8c-0.9-7.3,14.5-20.2,36.2-22.8c22.6-2.7,39.7,2.2,38.1,8.9c-3.7,16-20.5,21-31.5,22.2
								c-12.3,1.3-35.1-4.6-38.1-5.3c6,3,22.6,6.3,29.3,6.9c2.2,0.2,6.7,0.3,9,0.3c17.8-0.5,30.5-9.5,35.2-21.8
								C455.6,281.1,452.3,275.6,445.7,272.9z"/>
						</g>
					</g>
				</g>
				<g id="svga-group-facehighlight-single">
					
						<radialGradient id="SvgjsPath2906_1_" cx="-371.208" cy="725.6084" r="41.0003" gradientTransform="matrix(2.55 0 0 -2.55 1281.7725 2231.1423)" gradientUnits="userSpaceOnUse">
						<stop  offset="0" style="stop-color:#FFE4D6;stop-opacity:0.5"/>
						<stop  offset="0.9" style="stop-color:#F0C7B1;stop-opacity:0"/>
					</radialGradient>
					<path id="SvgjsPath2906" class="st34" d="M458.2,380.8c0.1,67.9-54.9,123-122.8,123.1C267.5,504,212.3,449,212.2,381.1
						c-0.1-67.9,54.9-123.2,122.8-123.3C402.9,257.7,458.1,312.9,458.2,380.8z"/>
					
						<radialGradient id="SvgjsPath2910_1_" cx="-371.2074" cy="796.1967" r="36.9995" gradientTransform="matrix(2.55 0 0 -2.55 1281.7725 2231.1423)" gradientUnits="userSpaceOnUse">
						<stop  offset="0" style="stop-color:#FFE4D6;stop-opacity:0.5"/>
						<stop  offset="0.9" style="stop-color:#F0C7B1;stop-opacity:0"/>
					</radialGradient>
					<path id="SvgjsPath2910" class="st35" d="M447.7,200.8c0,62.1-50.4,112.5-112.5,112.5c-62.1,0-112.5-50.4-112.5-112.5
						S273.1,88.3,335.2,88.3C397.3,88.3,447.7,138.7,447.7,200.8z"/>
				</g>
				<g id="svga-group-eyebrows-left-move" transform="matrix(1,0,0,1,0,0)">
					<g id="svga-group-eyebrows-left-rotate" transform="matrix(1,0,0,1,0,0)">
						<g id="svga-group-eyebrows-left" transform="matrix(1,0,0,1,0,0)">
							<path id="SvgjsPath3477" class="st36" d="M197.2,261.4c29.9-29.9,50.3-17.7,91.8-9.8c2.5,0.5,19,4.6,15.9,10.4
								c-1.4,2.8-6.1,2.4-8.7,2.4C255.1,263.7,235.2,234.4,197.2,261.4z"/>
						</g>
					</g>
				</g>
				<g id="svga-group-eyebrows-right-move" transform="matrix(1,0,0,1,0,0)">
					<g id="svga-group-eyebrows-right-rotate" transform="matrix(1,0,0,1,0,0)">
						<g id="svga-group-eyebrows-right" transform="matrix(1,0,0,1,0,0)">
							<path id="SvgjsPath3478" class="st36" d="M473.2,261.4c-29.9-29.9-50.3-17.7-91.8-9.8c-2.5,0.5-19,4.6-15.9,10.4
								c1.4,2.8,6.1,2.4,8.7,2.4C415.3,263.7,435.2,234.4,473.2,261.4z"/>
						</g>
					</g>
				</g>
				<g id="svga-group-nose-single-move" transform="matrix(1,0,0,1,0,0)">
					<g id="svga-group-nose-single" transform="matrix(1,0,0,1,0,0)">
						<path id="SvgjsPath3304" class="st5" d="M308.5,385.3c-2.6,6.2,17.8,12.9,25.6,13.3c8.4,0.4,31.9-8.7,27.9-15
							c-4.2-6.6-19.9-0.9-26.7-0.9C328.6,382.8,312.1,377.1,308.5,385.3z"/>
						<path id="SvgjsPath3305" class="st13" d="M340.8,390c-0.7-2.3,5.6-4.8,8-5.1c3.3-0.5,10.1,2.4,9.5,4.8
							c-0.6,2.1-6.4-1.6-8.6-1.3C347.4,388.7,341.4,392.2,340.8,390z M320.1,389.3c2.9,0,7.2,1.9,8,0.2c0.9-2-6.4-4.4-8.6-4.1
							c-1.8,0.2-8.2,3.9-7.3,5.5C313,392.3,316.3,389.3,320.1,389.3z"/>
						<path id="SvgjsPath3306" class="st37" d="M335.5,374.8c1.8,0,5.2-2.2,5.4-6.7c0.6-18-2.9-71.5-5.4-71.3
							c-2.3,0.2-6.8,52.9-5.8,71.3C329.9,372.7,333.4,374.8,335.5,374.8z"/>
					</g>
				</g>
				<g id="svga-group-beardwrap" transform="matrix(1,0,0,1,0,0)">
					<g id="svga-group-beard-single-move" transform="matrix(1,0,0,1,0,0)">
						<g id="svga-group-beard-single" transform="matrix(1,0,0,1,0,0)">
							<path id="SvgjsPath3581" class="st38" d="M400.3,467.9c-0.5-12.9-1.1-25.9-1.3-38.9c-0.1-13.4-12.7-19.9-19.8-21.7
								c-6.2-1.5-21.9-1.9-28.3-2.4c-14.6-1.2-12.5,15.5-3,17.1c26,4.6,36.1,2.5,37.6,14.3c1.8,13.8,8.6,28.9-7.1,40.2
								c-6.5,4.7-35.4,5.2-38.4,5.3c-1.7-1.1,0.2-10.7,0.5-12.7c0.7-3.4,6.9-6.8,7.7-12c-2.3,0.8-12.1,1.8-13.1,1.8
								c-1,0-10.8-1-13.1-1.8c0.8,5.2,7,8.6,7.6,12c0.4,1.9,2.4,11.5,0.5,12.7c-3-0.2-31.9-0.6-38.4-5.3
								c-15.7-11.3-8.9-26.4-7.1-40.2c1.5-11.8,11.6-9.7,37.6-14.3c9.5-1.6,11.7-18.3-3-17.1c-6.3,0.5-22.1,0.9-28.3,2.4
								c-7.1,1.8-19.7,8.3-19.8,21.7c-0.1,13-0.7,25.9-1.3,38.9c-0.9,21.8,12.4,37.2,34.8,38.3c10.1,0.4,20.2,0.7,30.3,0.7
								s20.2-0.2,30.3-0.7C387.9,505.1,401.2,489.7,400.3,467.9z"/>
						</g>
					</g>
				</g>
				<g id="svga-group-mustache-single-move" transform="matrix(1,0,0,1,0,0)">
					<g id="svga-group-mustache-single" transform="matrix(1,0,0,1,0,0)">
						<path id="SvgjsPath3493" class="st36" d="M335.2,93.2L335.2,93.2L335.2,93.2L335.2,93.2z"/>
					</g>
				</g>
				<g id="svga-group-hair-front" transform="matrix(1,0,0,1,0,0)">
					<path id="SvgjsPath3687" class="st39" d="M494.1,334.7c-13.7-37.3,2.2-94.5-24.6-136.8c-12.2-20.3-22.8-34.2-20.9-57.8
						l-1.1-0.4c-2.6,4.1-6,8.5-8.2,11.3c1.3-3.3,3.4-8.3,5.3-12.1l-1-0.7c-7.8,9.2-14.4,13.9-23.6,16.5c9.9-7,20.8-19.1,25.6-25.8
						l-0.8-0.9c-34,21.8-72.5,22.1-106.5,22.4c-30.7,0.2-49.7-0.5-71.9-13.3c-16,5.3-28.5,4.6-42.3-4.9
						c-43.2,83.8-24,41.9-49.9,197.3c-15-20-19.4-32.7-22.9-51.8c-0.9-6.1-1.9-15.5-1.3-21.6l-0.2-0.2
						c-13.4-29.3-19.7-46-16.5-104.1c2.4-24.1,7.6-42.2,22.7-61.2c-2-10.3-2.2-20.7-0.8-30.6c-7.9-14.5-13.4-29.4-15.5-34.7
						c11.1,8.5,12,9,21.2,11.9c2.1-5.8,5.2-11.6,7.2-14.6c0.9,6.7,1.6,11.3,3.6,17.8c0.7,0.2,3.9,1,5,1.3c-0.6-4-1.1-5.8-1.1-9.4
						c1.7,3.9,3.2,4.8,8.1,10.9c5.5,1.2,4.2,1,5.8,1c-8-12.5-13.4-23.7-14.8-40.5c11,6.2,26.3,9.8,42.3,9.8
						c37.6,0,76.1-28.2,129.5-28.2c46.3,0,86.3,25.7,104,54.9c0-7.5-0.3-13.8,2.4-21.5c0,0,0.3,11.1,0.3,19.8l1.2,0.1
						c1.9-9.9,5.8-18.3,12.3-26.3c-5.8,15.5-3.6,7.2-10,26.1l1,0.6c4.3-5.5,7.8-9.4,18.1-14.6c-7.4,7.4-13.1,11.7-16.6,16.9l0.9,0.8
						c4.4-4,8.9-5.5,13.5-1.8c-7.4-2.7-11.8,2-16.9,8c19.9,3.3,30.6,14.7,44.6,30c32.1,37.1,40.6,73.2,23.2,124.5
						c7.3,15.8,6.2,51.4-10.1,80.1C514.5,299.4,503,320.2,494.1,334.7z"/>
					<path id="SvgjsPath3688" class="st40" d="M222.1,130c1.1,1,2.2,2,3.2,3c-0.4-0.3-0.8-0.5-1.2-0.8
						c-43.2,83.8-24,41.9-49.9,197.3c-15-20-19.4-32.7-22.9-51.8c-0.9-6.1-1.9-15.5-1.3-21.6l-0.2-0.2
						c-13.4-29.3-19.7-46-16.5-104.1c2.4-24.1,7.6-42.2,22.7-61.2c-2-10.1-2.2-20.3-0.9-30.1c1.8,2.6,3.7,5.2,5.6,7.7
						c1.3,7.9,2.4,15.5,0.4,21.8c-28.6,88.4-12,129,6,192c-7.4-47.8-21.4-108.6,16.9-144c-16.4,39.3-11.8,57.1-7.9,84
						C178.9,186.1,191.8,152.8,222.1,130z M501.5,78c-1.1-1.2-2.2-2.4-3.3-3.6c-1.1,0.8-2.3,1.5-3.5,2.2
						c44.9,92,1.8,83.2,12.1,124.2c12,30-3.6,48-3.6,78c0-45-2-76.3-26.9-111.5c-8.4-11.9-10.7-52.3-16.4-72.2
						c-69.6,42.7-172.7,51.7-281-34.7c51,18,154.9,4.1,190.6-18.9c-40.7,7.4-125.6,7.8-163.8-7.9c91.5-7.1,90.4-36.5,168.4-42
						c-37.5-14-119.4,21.8-157,21.8c-16,0-31.3-3.6-42.3-9.8c1.4,16.9,6.8,28,14.8,40.5c-1.7,0-0.3,0.2-5.8-1c-5-6.1-6.4-7-8.1-10.9
						c-0.1,3.6,0.5,5.4,1.1,9.4c-1-0.3-4.3-1.2-5-1.3c-2-6.5-2.7-11.1-3.6-17.8c-2,3-5,8.8-7.2,14.6c-9.2-2.9-10.1-3.4-21.2-11.9
						c2.1,5.3,7.6,20.2,15.5,34.7c0,0.2,0,0.3,0,0.5c18.9,27.7,45.5,49.4,70.1,72.6c13.4,8.8,25.7,9.3,41.2,4.1
						c22.1,12.9,41.2,13.6,71.9,13.3c34-0.3,72.5-0.6,106.5-22.4l0.8,0.9c-4.8,6.7-15.7,18.8-25.6,25.8c9.2-2.6,15.8-7.3,23.6-16.5
						l1,0.7c-1.9,3.8-4,8.8-5.3,12.1c2.3-2.8,5.6-7.2,8.2-11.3l1.1,0.4c-1.9,23.6,8.7,37.5,20.9,57.8
						c26.8,42.3,10.9,99.5,24.6,136.8c8.9-14.4,20.4-35.2,20.4-52.1c16.3-28.7,17.4-64.3,10.1-80.1
						C542.1,151.3,533.6,115.1,501.5,78z M503.7,155c-1-28.6-19.9-64.8-19.9-64.8c-8.8-15.6-16.7-23.1-30-26.1
						c37.3,1.9,51.9,57.5,50.3,86.6C504,153.4,503.7,155,503.7,155z M418.9,34.3c9.8,8,12.2,10.3,21.9,23.7
						c-50-89.7-148-21.8-179-24C293.3,40.6,364.6-5.5,418.9,34.3z M444.3,73.3c-59.9,49.6-151.3,28.6-226.1,5.2
						C292.7,112.6,387.5,131,444.3,73.3z M208.8,127.3c-19.6,10.3-28.8,36.2-29.7,53.3C182.8,165.8,193.8,138.7,208.8,127.3z
						 M184.1,113c-28.1,17.1-33.5,56.3-30.8,89.3C156.3,171.9,161.7,132.2,184.1,113z M386.4,75.9c-3,0.6-21.8,3.2-32,3.6
						c-8,0.5-39.1,1-67.2-0.1c29,6.2,46.4,7.4,67.5,6.1c24.3-0.9,46.1-5.7,64.1-20.4C406.1,72,400.7,73,386.4,75.9z M487,155.5
						c0,0-0.8-1.3-1.8-3.3c-2.7-4.6-5.8-17-17.8-56.2c8.9,72.6,23.5,59.3,30,96.8C497.4,179.3,496.5,172.4,487,155.5z"/>
					<path id="SvgjsPath3689" class="st41" d="M508.8,243.2c1.1-9.7,0.7-5.3,0.8-10.8c0.9-18.7-10.3-34.4-3.5-57
						c5.6-16.4,8.8-18.9,6.3-47.4c-0.4-4.1-1.4-14.3-3.3-18c2.6,4.5,4.3,12.7,5.2,17.8c5.1,28.6,0.8,33-4.6,48.8
						C502.5,200.6,516.3,211.1,508.8,243.2z M459.9,95.1c3.4,91.1,21.8,69.9,38.2,125.3C487,155.1,476.7,209.2,459.9,95.1z
						 M180.3,141.5c-27.6,34.7-24.8,59.7-18,111C161.7,200.6,155.4,180.9,180.3,141.5z M160.5,92c-15.8,49-19.3,71.1-11.7,123.9
						C147.4,162.9,147.7,151.2,160.5,92z M221.1,130.8c-28.9,20.8-44,58.7-44.9,91.1C180.6,190.9,197.2,151.9,221.1,130.8z
						 M421.8,112.6c-36.2,13.3-95,16.9-138,4C250.3,106.8,198,74,169.9,53.4c25.5,20.3,70.4,50.4,101.8,62.3
						c32.6,12.2,83.7,16.7,123.2,6.7c27.7-7,42.1-13.6,65-27.3C449.7,100.7,434.7,108.6,421.8,112.6z M343.6,4.1
						c36.5-6.9,79.5,16.7,102.2,44.5c-23.7-34-62.5-50.8-85.7-51.2c-38-0.7-77.4,31.9-154.3,34.7C278.1,35.2,312.9,9,343.6,4.1z
						 M372.3,42.5C320.4,61,280.4,65.4,225.9,68.3C282.2,71.8,322.4,66.3,372.3,42.5z M426.8,53.1c-32,15.1-46,17.6-112,21.6
						C356.2,76.3,394.8,74.2,426.8,53.1z M320.9,98.9c31.9,3.7,87.9-0.3,115.9-29.4C403,98,340.4,97,291.7,95.1
						C310.3,98,307,97.5,320.9,98.9z M457.8,71c22.9,8.4,28.5,48.6,37.5,81C491.3,123.3,484.4,77.3,457.8,71z"/>
					<path id="SvgjsPath3690" class="st42" d="M501.9,77.6c-13-14.3-24.8-26.9-43.9-30.1c6.3-7.4,10.7-10.1,18.8-5.6
						c-4.8-5.6-10.3-6.7-16.9-0.7c3.8-5.7,10.4-10.4,18.9-19.3c-12.7,6-16.5,10-21.4,16.3c6.9-20.1,3.9-9.4,11.2-29.3
						c-7.6,8.5-12.4,17.8-14.6,29.2c0-17.7-0.6-15.4-0.2-23.2c-4.2,9.3-3.7,17.4-3.7,22.8c-6.7-11-16.5-20.4-27.2-28.1
						c-75.2-54.9-150.1-4.4-190.7,1.7c-16.5,2.8-41.1,1-58.1-9.1c1.2,17.3,6.5,28.8,14.4,41c0,0-4.4-0.9-4.4-0.9
						c-6.1-7.3-6.6-7.1-8.9-13c-0.6,5.3,0.3,8.2,0.8,11.2c-1.5-0.4-2.9-0.8-3.8-1c-2.2-7.2-2.9-12.8-3.7-18.9
						c-1.8,2.4-5.8,9.5-7.9,15.5c-9-2.8-9.6-3.3-22.3-13c1.5,3,6.9,19.4,16.3,36.7c-1.4,10.6-1,21.2,0.8,30.4
						c-15.1,18.9-20.3,37-22.7,61.3c-3.1,57.2,2.6,73.8,16.6,104.5c0,0,0,0.1,0.1,0.1c-0.5,5.9,0.4,15.3,1.3,21.5
						c3.5,19,7.9,32.1,23.7,53c0.1,0.1,0.1,0.1,0.1,0.2c10.2-61.1,9.1-62.6,11.3-77.7c10.7-77.1,10.3-65.6,38.4-120.2
						c11.4,7.9,24.1,10.7,42.1,4.7c13,7.6,26.3,13.4,63.2,13.4c36.5-0.5,78.5,1.2,115.6-22.6c-5.6,7.9-18.4,21.5-28.4,27.5
						c10.4-2.2,17.9-6.4,27.3-17.5c-2.9,5.7-6.2,14.4-6.5,15.5c0.4-0.5,6.4-7.7,10.5-14.1c-2,23.8,8.7,37.8,20.9,58.2
						c26.9,42.5,10.5,100.6,25,137.9c9.3-15,21.1-36.3,21.1-53.3c15.6-27.3,17.9-63.3,10.2-80.3C541,155.6,537.8,119,501.9,77.6z
						 M175.6,31.4c1.5,4.2,1.8,4.1,7.5,10.8c-2.8-0.6-4.7-1-6.4-1.4C176,37.7,175.6,34.7,175.6,31.4z M168,23.5
						c0.3,4.6,1.4,10.6,3,15.9c-8.6-2.2-5.4-1.5-8.4-2.4C165.1,29.6,166,27.7,168,23.5z M173.2,324.1c-12.6-22.8-16-30.6-19.5-53.7
						c-0.3-2.7-1.4-10.3-1.5-14c-18.2-41.6-25.1-120.7,3.6-164.2c0,0,0,0,0,0s1.2-1.9,3.4-4.6c-0.8-4-1.6-12.5-1.3-21.8
						c2.2,4,4.7,7.6,7,11c0,0,1.8,2.3,1.8,2.4c13.7,17.4,26.3,31.8,56.8,53.3C186.8,191.8,189.1,171.7,173.2,324.1z M526.1,183.5
						c-1.1,7.1-3.4,16.7-4.6,21c8.3,21.2-0.8,61.3-9.2,79.1c-3.7,21.3-7.6,25.6-18,46.8c-7.4-33,7.7-91.6-20.3-135.2
						c-18.2-30.1-26-34.1-21.7-71.3c0,0,0.2-2,0.2-2.6c-37.9,23.2-79.7,25.8-134.9,24.6c-16,0-37.5-2-50.9-10.3
						c-27.2,7.7-37.4-4.3-60-22c-24.5-20.8-41.1-39-61.7-81.8c11.5,9.4,34.6,14.1,49.2,16.5c-9.8-13.1-15.6-25-18.2-42
						c10.4,7,35.5,13.8,57.5,11.4c40.6-3.8,97.5-45.5,167.3-13.9c32.4,14.3,48.9,34.4,52.7,45c0,0,0.1,0,0.1,0
						c0.2,0.1,0.4,0.1,0.6,0.1c0.1,0.1,1,0.3,1.1,0.3c20.9,7,22.3,8.3,42.6,31.9C509.3,95,536.7,122.9,526.1,183.5z"/>
				</g>
				<g id="svga-group-glasses-single-move" transform="matrix(1,0,0,1,0,0)">
					<g id="svga-group-glasses-single" transform="matrix(1,0,0,1,0,0)">
						<path id="SvgjsPath3574" class="st43" d="M335.2,93.2L335.2,93.2L335.2,93.2L335.2,93.2z"/>
					</g>
				</g>
			</g>
		</g>
	</g>
	<rect id="SvgjsRect1057" y="555" class="st44" width="600" height="45"/>
</g>
</svg>
