<?xml version="1.0" encoding="utf-8"?>
<!-- Generator: Adobe Illustrator 25.0.0, SVG Export Plug-In . SVG Version: 6.00 Build 0)  -->
<svg version="1.1"
	 id="svg2169" inkscape:output_extension="org.inkscape.output.svg.inkscape" inkscape:version="0.45.1" xmlns:cc="http://web.resource.org/cc/" xmlns:dc="http://purl.org/dc/elements/1.1/" xmlns:inkscape="http://www.inkscape.org/namespaces/inkscape" xmlns:rdf="http://www.w3.org/1999/02/22-rdf-syntax-ns#" xmlns:sodipodi="http://sodipodi.sourceforge.net/DTD/sodipodi-0.dtd" xmlns:svg="http://www.w3.org/2000/svg"
	 xmlns="http://www.w3.org/2000/svg" xmlns:xlink="http://www.w3.org/1999/xlink" x="0px" y="0px" viewBox="0 0 42.8 40"
	 style="background-color:white" xml:space="preserve">
<style type="text/css">
	.st0{fill:url(#path8615_3_);}
	.st1{fill:url(#path8620_3_);}
	.st2{fill:#040404;}
	.st3{fill:none;}
	.st4{fill:url(#path8615_4_);}
	.st5{fill:url(#path8620_4_);}
	.st6{fill:url(#path8615_5_);}
	.st7{fill:url(#path8620_5_);}
</style>
<g id="layer1_2_" transform="translate(-473.36088,-251.72485)" inkscape:groupmode="layer" inkscape:label="Calque 1">
	<g id="g1894_2_" transform="translate(428.42338,184.2561)">
		
			<linearGradient id="path8615_3_" gradientUnits="userSpaceOnUse" x1="100.0999" y1="132.8969" x2="113.7499" y2="119.2013" gradientTransform="matrix(1 0 0 -1 -44.9375 209.1233)">
			<stop  offset="0" style="stop-color:#387EB8"/>
			<stop  offset="1" style="stop-color:#366994"/>
		</linearGradient>
		<path id="path8615_2_" class="st0" d="M66.3,73.8c-7,0-6.6,3-6.6,3l0,3.1h6.7v0.9h-9.3c0,0-4.5-0.5-4.5,6.6s3.9,6.8,3.9,6.8h2.3
			V91c0,0-0.1-3.9,3.9-3.9s6.6,0,6.6,0s3.7,0.1,3.7-3.6s0-6.1,0-6.1S73.6,73.8,66.3,73.8z M62.6,75.9c0.7,0,1.2,0.5,1.2,1.2
			s-0.5,1.2-1.2,1.2c-0.7,0-1.2-0.5-1.2-1.2S61.9,75.9,62.6,75.9z"/>
		
			<linearGradient id="path8620_3_" gradientUnits="userSpaceOnUse" x1="108.4939" y1="124.1783" x2="123.1541" y2="110.1331" gradientTransform="matrix(1 0 0 -1 -44.9375 209.1233)">
			<stop  offset="0" style="stop-color:#FFE052"/>
			<stop  offset="1" style="stop-color:#FFC331"/>
		</linearGradient>
		<path id="path8620_2_" class="st1" d="M66.5,101.2c7,0,6.6-3,6.6-3l0-3.1h-6.7v-0.9h9.3c0,0,4.5,0.5,4.5-6.6
			c0-7.1-3.9-6.8-3.9-6.8h-2.3V84c0,0,0.1,3.9-3.9,3.9c-4,0-6.6,0-6.6,0s-3.7-0.1-3.7,3.6c0,3.7,0,6.1,0,6.1S59.2,101.2,66.5,101.2z
			 M70.2,99.1c-0.7,0-1.2-0.5-1.2-1.2c0-0.7,0.5-1.2,1.2-1.2s1.2,0.5,1.2,1.2C71.4,98.6,70.8,99.1,70.2,99.1z"/>
	</g>
</g>
<g>
	<path class="st2" d="M5.2,4.8v30.5h2.2V36h-3V4h3v0.7H5.2z"/>
</g>
<polygon class="st2" points="37.7,35.3 37.7,4.8 35.4,4.8 35.4,4 38.5,4 38.5,36 35.4,36 35.4,35.3 "/>
</svg>
